<svg 
 xmlns="http://www.w3.org/2000/svg"
 xmlns:xlink="http://www.w3.org/1999/xlink"
 width="14px" height="16px">
<path fill-rule="evenodd"  fill="rgb(255, 199, 91)"
 d="M13.992,11.999 C13.992,12.551 13.544,12.998 12.994,12.998 L1.006,12.998 C0.455,12.998 0.008,12.551 0.008,11.999 C0.008,11.777 -0.000,11.248 0.132,10.998 C0.265,10.748 0.588,10.440 0.588,10.440 C2.239,8.784 3.336,6.485 3.504,4.001 C3.504,4.001 3.504,3.677 3.504,3.502 C3.504,1.570 5.068,0.003 7.000,0.003 C8.931,0.003 10.496,1.570 10.496,3.502 C10.496,3.677 10.496,4.001 10.496,4.001 C10.664,6.485 11.762,8.736 13.412,10.393 C13.412,10.393 13.688,10.733 13.868,10.998 C14.047,11.263 13.992,11.777 13.992,11.999 ZM7.000,15.997 C5.897,15.997 5.002,15.101 5.002,13.997 L8.997,13.997 C8.997,15.101 8.104,15.997 7.000,15.997 Z"/>
</svg>