<svg 
 xmlns="http://www.w3.org/2000/svg"
 xmlns:xlink="http://www.w3.org/1999/xlink"
 width="16px" height="16px">
<path fill-rule="evenodd"  fill="rgb(255, 199, 91)"
 d="M14.500,11.000 C14.375,11.547 14.052,12.000 13.500,12.000 L4.500,12.000 C3.947,12.000 3.601,11.602 3.500,11.000 L2.150,2.000 L1.000,2.000 C0.447,2.000 -0.000,1.553 -0.000,1.000 C-0.000,0.447 0.447,0.000 1.000,0.000 L3.000,0.000 C3.552,0.000 3.851,0.367 4.000,1.000 L4.301,3.000 L15.000,3.000 C15.552,3.000 16.141,3.445 15.970,4.170 C15.919,4.387 14.500,11.000 14.500,11.000 ZM10.000,7.000 L10.000,5.000 L8.000,5.000 L8.000,7.000 L6.000,7.000 L9.000,10.000 L12.000,7.000 L10.000,7.000 ZM5.500,13.000 C6.328,13.000 7.000,13.672 7.000,14.500 C7.000,15.328 6.328,16.000 5.500,16.000 C4.672,16.000 4.000,15.328 4.000,14.500 C4.000,13.672 4.672,13.000 5.500,13.000 ZM12.500,13.000 C13.328,13.000 14.000,13.672 14.000,14.500 C14.000,15.328 13.328,16.000 12.500,16.000 C11.672,16.000 11.000,15.328 11.000,14.500 C11.000,13.672 11.672,13.000 12.500,13.000 Z"/>
</svg>