<svg 
 xmlns="http://www.w3.org/2000/svg"
 xmlns:xlink="http://www.w3.org/1999/xlink"
 width="16px" height="16px">
<path fill-rule="evenodd"  fill="rgb(255, 199, 91)"
 d="M15.000,12.000 L3.000,12.000 C2.447,12.000 2.001,11.553 2.001,11.000 L2.001,2.000 L1.000,2.000 C0.447,2.000 -0.000,1.553 -0.000,1.000 C-0.000,0.447 0.447,-0.000 1.000,-0.000 L3.000,-0.000 C3.553,-0.000 4.001,0.447 4.001,1.000 L4.001,10.000 L15.000,10.000 C15.552,10.000 16.000,10.447 16.000,11.000 C16.000,11.553 15.552,12.000 15.000,12.000 ZM5.000,5.000 L13.001,5.000 L13.001,9.000 L5.000,9.000 L5.000,5.000 ZM5.000,1.000 L11.000,1.000 L11.000,4.000 L5.000,4.000 L5.000,1.000 ZM5.500,13.000 C6.328,13.000 7.000,13.672 7.000,14.500 C7.000,15.328 6.328,16.000 5.500,16.000 C4.672,16.000 4.000,15.328 4.000,14.500 C4.000,13.672 4.672,13.000 5.500,13.000 ZM12.500,13.000 C13.329,13.000 14.000,13.672 14.000,14.500 C14.000,15.328 13.329,16.000 12.500,16.000 C11.672,16.000 11.000,15.328 11.000,14.500 C11.000,13.672 11.672,13.000 12.500,13.000 Z"/>
</svg>