<svg 
 xmlns="http://www.w3.org/2000/svg"
 xmlns:xlink="http://www.w3.org/1999/xlink"
 width="16px" height="16px">
<path fill-rule="evenodd"  fill="rgb(255, 199, 91)"
 d="M15.000,16.000 L1.000,16.000 C0.447,16.000 -0.000,15.553 -0.000,15.000 L-0.000,7.000 C-0.000,6.447 0.447,6.000 1.000,6.000 L15.000,6.000 C15.553,6.000 16.000,6.447 16.000,7.000 L16.000,15.000 C16.000,15.553 15.553,16.000 15.000,16.000 ZM14.000,8.000 L2.000,8.000 L2.000,14.000 L14.000,14.000 L14.000,8.000 ZM6.000,11.000 C6.000,12.105 6.894,13.000 8.000,13.000 L3.000,13.000 L3.000,9.000 L8.000,9.000 C6.894,9.000 6.000,9.897 6.000,11.000 ZM10.000,11.000 C10.000,9.897 9.104,9.000 8.000,9.000 L13.000,9.000 L13.000,13.000 L8.000,13.000 C9.104,13.000 10.000,12.105 10.000,11.000 ZM-0.000,4.000 C-0.000,3.447 0.447,3.000 1.000,3.000 L15.000,3.000 C15.553,3.000 16.000,3.447 16.000,4.000 L16.000,5.000 L-0.000,5.000 L-0.000,4.000 ZM-0.000,1.000 C-0.000,0.448 0.447,-0.000 1.000,-0.000 L15.000,-0.000 C15.553,-0.000 16.000,0.448 16.000,1.000 L16.000,2.000 L-0.000,2.000 L-0.000,1.000 Z"/>
</svg>