<svg 
 xmlns="http://www.w3.org/2000/svg"
 xmlns:xlink="http://www.w3.org/1999/xlink"
 width="16px" height="16px">
<path fill-rule="evenodd"  fill="rgb(255, 199, 91)"
 d="M14.999,6.000 L13.651,6.000 C13.580,5.801 13.500,5.608 13.410,5.420 L14.363,4.465 C14.755,4.074 14.754,3.442 14.363,3.051 L12.948,1.637 C12.558,1.246 11.926,1.246 11.535,1.637 L10.582,2.590 C10.393,2.500 10.000,2.420 10.000,2.350 L10.000,1.000 C10.000,0.447 9.552,0.000 9.000,0.000 L7.000,0.000 C6.447,0.000 6.000,0.447 6.000,1.000 L6.000,2.350 C6.000,2.420 5.607,2.500 5.419,2.590 L4.464,1.637 C4.074,1.246 3.441,1.246 3.050,1.637 L1.636,3.051 C1.245,3.442 1.245,4.074 1.636,4.465 L2.590,5.420 C2.500,5.608 2.419,5.801 2.348,6.000 L0.999,6.000 C0.447,6.000 -0.000,6.447 -0.000,7.000 L-0.000,9.000 C-0.000,9.553 0.447,10.000 0.999,10.000 L2.348,10.000 C2.419,10.199 2.500,10.393 2.590,10.582 L1.636,11.535 C1.245,11.926 1.245,12.559 1.636,12.949 L3.050,14.363 C3.441,14.754 4.074,14.754 4.464,14.363 L5.418,13.410 C5.607,13.500 6.000,13.582 6.000,13.652 L6.000,15.000 C6.000,15.553 6.447,16.000 7.000,16.000 L9.000,16.000 C9.552,16.000 10.000,15.553 10.000,15.000 L10.000,13.652 C10.000,13.582 10.393,13.500 10.582,13.410 L11.535,14.363 C11.925,14.754 12.558,14.754 12.948,14.363 L14.363,12.949 C14.755,12.559 14.755,11.926 14.364,11.535 L13.410,10.582 C13.500,10.393 13.580,10.199 13.651,10.000 L14.999,10.000 C15.552,10.000 16.000,9.553 16.000,9.000 L16.000,7.000 C16.000,6.447 15.552,6.000 14.999,6.000 ZM8.000,11.000 C6.344,11.000 4.999,9.658 4.999,8.000 C4.999,6.344 6.344,5.000 8.000,5.000 C9.656,5.000 10.999,6.344 10.999,8.000 C10.999,9.658 9.656,11.000 8.000,11.000 Z"/>
</svg>